<svg xmlns:dc="http://purl.org/dc/elements/1.1/" xmlns:cc="http://creativecommons.org/ns#" xmlns:rdf="http://www.w3.org/1999/02/22-rdf-syntax-ns#" xmlns:svg="http://www.w3.org/2000/svg" xmlns="http://www.w3.org/2000/svg" xmlns:sodipodi="http://sodipodi.sourceforge.net/DTD/sodipodi-0.dtd" xmlns:inkscape="http://www.inkscape.org/namespaces/inkscape" version="1.1" x="0px" y="0px" viewBox="0 0 100 125"><g transform="translate(0,-952.36218)"><path style="text-indent:0;text-transform:none;direction:ltr;block-progression:tb;baseline-shift:baseline;color:#000000;enable-background:accumulate;" d="m 8,958.36217 c -1.1046,0 -2,0.8954 -2,2 l 0,84.00003 c 0,1.1046 0.8954,2 2,2 l 84,0 c 1.1046,0 2,-0.8954 2,-2 0,-1.1046 -0.8954,-2 -2,-2 l -82,0 0,-82.00003 c 0,-1.1046 -0.8954,-2 -2,-2 z m 66,26 c -1.1354,0.0269 -1.9754,1.09908 -2,2 l 0,46.00003 c 1e-4,1.0472 0.9528,1.9999 2,2 l 8,0 c 1.0472,-10e-5 1.9999,-0.9528 2,-2 l 0,-46.00003 c -1e-4,-1.04717 -0.9528,-1.9999 -2,-2 l -8,0 z m 2,4 4,0 0,42.00003 -4,0 0,-42.00003 z m -38,2 c -1.1354,0.0269 -1.9754,1.09908 -2,2 l 0,40.00003 c 1e-4,1.0472 0.9528,1.9999 2,2 l 8,0 c 1.0472,-10e-5 1.9999,-0.9528 2,-2 l 0,-40.00003 c -1e-4,-1.04717 -0.9528,-1.9999 -2,-2 l -8,0 z m 2,4 4,0 0,36.00003 -4,0 0,-36.00003 z m 16,2 c -1.1354,0.0269 -1.9754,1.09908 -2,2.00003 l 0,34 c 1e-4,1.0472 0.9528,1.9999 2,2 l 8,0 c 1.0472,-10e-5 1.9999,-0.9528 2,-2 l 0,-34 c -1e-4,-1.0472 -0.9528,-1.99993 -2,-2.00003 l -8,0 z m 2,4.00003 4,0 0,30 -4,0 0,-30 z m -38,2 c -1.1354,0.027 -1.9754,1.0991 -2,2 l 0,28 c 10e-5,1.0472 0.9528,1.9999 2,2 l 8,0 c 1.0472,-10e-5 1.9999,-0.9528 2,-2 l 0,-28 c -10e-5,-1.0472 -0.9528,-1.9999 -2,-2 l -8,0 z m 2,4 4,0 0,24 -4,0 0,-24 z" fill="#000000" fill-opacity="1" stroke="none" marker="none" visibility="visible" display="inline" overflow="visible"/></g><text x="0" y="115" fill="#000000" font-size="5px" font-weight="bold" font-family="'Helvetica Neue', Helvetica, Arial-Unicode, Arial, Sans-serif">Created by Barracuda</text><text x="0" y="120" fill="#000000" font-size="5px" font-weight="bold" font-family="'Helvetica Neue', Helvetica, Arial-Unicode, Arial, Sans-serif">from the Noun Project</text></svg>