<svg xmlns="http://www.w3.org/2000/svg" xmlns:xlink="http://www.w3.org/1999/xlink" version="1.1" x="0px" y="0px" viewBox="0 0 32 40" style="enable-background:new 0 0 32 32;" xml:space="preserve"><g><path d="M25,11c-0.553,0-1-0.448-1-1V4.503C24,3.674,24.674,3,25.503,3H31c0.553,0,1,0.448,1,1s-0.447,1-1,1h-5v5   C26,10.552,25.553,11,25,11z"/><path d="M16,32C7.178,32,0,24.822,0,16S7.178,0,16,0c0.552,0,1,0.448,1,1s-0.448,1-1,1C8.28,2,2,8.28,2,16s6.28,14,14,14   s14-6.28,14-14c0-3.74-1.456-7.255-4.101-9.899c-0.391-0.39-0.391-1.023,0-1.414s1.023-0.391,1.414,0C30.336,7.708,32,11.726,32,16   C32,24.822,24.822,32,16,32z"/><path d="M21,17h-5c-0.552,0-1-0.448-1-1V8c0-0.552,0.448-1,1-1s1,0.448,1,1v7h4c0.553,0,1,0.448,1,1S21.553,17,21,17z"/></g><text x="0" y="47" fill="#000000" font-size="5px" font-weight="bold" font-family="'Helvetica Neue', Helvetica, Arial-Unicode, Arial, Sans-serif">Created by ✦ Shmidt Sergey ✦</text><text x="0" y="52" fill="#000000" font-size="5px" font-weight="bold" font-family="'Helvetica Neue', Helvetica, Arial-Unicode, Arial, Sans-serif">from the Noun Project</text></svg>