<svg xmlns="http://www.w3.org/2000/svg" xmlns:xlink="http://www.w3.org/1999/xlink" version="1.1" x="0px" y="0px" viewBox="0 0 100 125" enable-background="new 0 0 100 100" xml:space="preserve"><path d="M50,27.1c-10.566,0-19.135,8.565-19.135,19.137c0,8.108,5.07,15.033,12.192,17.817l7.05,8.847l7.139-8.961  c6.969-2.857,11.89-9.702,11.89-17.703C69.135,35.665,60.571,27.1,50,27.1z M50,52.693c-3.736,0-6.766-3.025-6.766-6.763  c0-3.736,3.03-6.765,6.766-6.765c3.737,0,6.767,3.028,6.767,6.765C56.767,49.668,53.736,52.693,50,52.693z"/><text x="0" y="115" fill="#000000" font-size="5px" font-weight="bold" font-family="'Helvetica Neue', Helvetica, Arial-Unicode, Arial, Sans-serif">Created by Alexander Smith</text><text x="0" y="120" fill="#000000" font-size="5px" font-weight="bold" font-family="'Helvetica Neue', Helvetica, Arial-Unicode, Arial, Sans-serif">from the Noun Project</text></svg>