<?xml version="1.0" encoding="utf-8"?>
<!-- Generator: Adobe Illustrator 16.0.4, SVG Export Plug-In . SVG Version: 6.00 Build 0)  -->
<!DOCTYPE svg PUBLIC "-//W3C//DTD SVG 1.1//EN" "http://www.w3.org/Graphics/SVG/1.1/DTD/svg11.dtd">
<svg version="1.1"
	 id="Layer_1" xmlns:dc="http://purl.org/dc/elements/1.1/" xmlns:cc="http://creativecommons.org/ns#" xmlns:rdf="http://www.w3.org/1999/02/22-rdf-syntax-ns#" xmlns:svg="http://www.w3.org/2000/svg" xmlns:sodipodi="http://sodipodi.sourceforge.net/DTD/sodipodi-0.dtd" xmlns:inkscape="http://www.inkscape.org/namespaces/inkscape"
	 xmlns="http://www.w3.org/2000/svg" xmlns:xlink="http://www.w3.org/1999/xlink" x="0px" y="0px" width="1000px" height="1000px"
	 viewBox="0 0 1000 1000" enable-background="new 0 0 1000 1000" xml:space="preserve">
<g transform="translate(0,-952.36218)">
	<path d="M500,1055.748c-43.987-2.671-80.907,8.971-113.427,27.268c-6.283,54.593,8.457,94.774,52.105,120.405
		c20.111,11.259,38.841,18.838,61.321,22.664c21.731-3.946,42.833-14.139,60.612-24.789c53.312-31.432,52.814-62.176,52.814-118.28
		C579.527,1058.963,535.456,1055.878,500,1055.748L500,1055.748z M363.888,1095.766c-49.31,27.973-100.326,56.093-147.455,84.846
		c-113.482,203.604-113.427,442.257-113.427,668.745H205.09c10.094-134.71,35.985-261.159,57.068-379.275
		c0.178,124.418,1.063,196.306,0,321.551c0,18.95,16.909,31.406,37.572,34.707l143.556,22.663c11.34,0,34.028-22.663,34.028-22.663
		h10.634v-579.005c-21.155-5.491-43.333-14.26-60.612-24.08C366.805,1185.307,363.888,1159.199,363.888,1095.766L363.888,1095.766z
		 M636.112,1096.117c7.035,57.851-17.026,95.978-63.803,124.655c-20.205,12.147-40.378,20.673-61.676,26.56v579.004h12.052
		c-0.629,0.317,22.688,22.664,34.028,22.664l144.265-22.664c20.664-3.296,37.572-15.756,37.572-34.706
		c-0.162-130.001-0.103-209.175,0-316.593c20.926,116.7,46.405,241.474,56.359,374.317h102.084
		c0-226.746,0.446-464.839-113.427-668.6C733.032,1152.074,682.336,1122.599,636.112,1096.117z M567.348,1395.714h102.084v22.666
		H567.348V1395.714z M362.47,1635.106c14.295-0.737,26.859,14.901,23.04,28.684l-23.395,87.824
		c-2.019,12.476-16.059,21.55-28.276,18.275c-12.216-3.275-19.825-18.15-15.322-29.961l23.394-87.824
		C347.311,1642.39,352.545,1633.898,362.47,1635.106z M631.858,1635.106c15.597-1.207,22.495,7.684,25.167,16.998l23.395,87.824
		c4.503,11.811-3.105,26.686-15.323,29.961c-12.217,3.274-26.257-5.8-28.275-18.275l-23.395-87.824
		c0-18.559,6.645-26.464,18.432-28.687V1635.106z"/>
</g>
</svg>
