<?xml version="1.0" encoding="utf-8"?>
<!-- Generator: Adobe Illustrator 16.0.4, SVG Export Plug-In . SVG Version: 6.00 Build 0)  -->
<!DOCTYPE svg PUBLIC "-//W3C//DTD SVG 1.1//EN" "http://www.w3.org/Graphics/SVG/1.1/DTD/svg11.dtd">
<svg version="1.1" id="Layer_1" xmlns="http://www.w3.org/2000/svg" xmlns:xlink="http://www.w3.org/1999/xlink" x="0px" y="0px"
	 width="1000px" height="1000px" viewBox="0 0 1000 1000" enable-background="new 0 0 1000 1000" xml:space="preserve">
<g>
	<path d="M172,421.23c3.2-3.2,4.8-7.2,5.6-12c19.2-36,42.4-68.8,72-96c12-10.4,24-20,36-30.4c15.2-8,29.6-16,39.2-32
		c6.4-11.2,16.8-20,29.601-24c6.399-2.4,12.8-2.4,19.199,1.6c3.2,2.4,5.601,4,1.601,8.8c-20.8,25.6-19.2,32.8,8.8,52
		c22.4,22.4,43.2,44.8,58.4,72c2.399,4,8.8,22.4,12.8,35.2c1.6-1.6,2.399-3.2,2.399-4.8c16.801-69.6,9.601-137.6-19.199-202.4
		c-9.601-21.6-26.4-36.8-48.801-44c-20.8-7.2-66.399-6.4-82.399,0.8c-24,10.4-48,20-68.8,37.6c-4,3.2-28.8,28.8-32.8,34.4
		c-24.8,36-32.8,77.6-36,120C166.4,364.43,167.2,393.23,172,421.23L172,421.23z"/>
	<path d="M418.4,546.83c0-0.801,0.8-0.801,0.8-1.6c-6.4,10.4-12,18.4-13.601,20.799c-6.399,10.4-9.6,21.602-11.199,34.4
		c0,3.201,0.8,7.201-3.2,8.801c-3.2,0.799-5.601-2.4-8-4.801c-14.4-14.4-17.601-40-7.2-61.6c4-7.199,8-14.4,12.8-20.801
		c17.601-23.2,21.601-50.399,20.8-77.599c0-14.4-0.8-31.2-11.199-44c-10.4-24-25.601-44-39.2-64.8c-4.8-7.2-12-13.6-17.601-20.8
		c-6.399-8-12.8-8-20-0.8c-28.8,28-54.4,58.4-76.8,91.2c-16.8,21.6-30.4,45.6-36,72.8c-4,17.6-0.8,32.8,12,46.4
		c23.2,24.801,28.8,51.201,16,76c-1.6,2.4-1.6,7.201-5.6,7.201c-4.8,0-4-5.602-5.6-8.801c-4-12-7.2-24-16.8-32.801
		c-1.6-2.398-6.4-8.799-12-18.398c0.8,7.199,0.8,16,1.6,20c9.6,53.6,15.2,108,15.2,162.398c0,27.201,6.4,53.602,20,77.602
		c18.4,32.799,44.8,49.6,84.8,52c63.199,3.199,96.8-43.201,103.199-92c1.601-14.4,3.2-28.801,2.4-43.201
		C418.4,665.23,414.4,606.029,418.4,546.83z"/>
</g>
<g>
	<path d="M799.2,568.43c-9.601,8.8-12.8,20.8-16.8,32.8c-1.601,3.2-0.801,8.801-5.601,8.801c-4,0-4-4.801-5.6-7.2
		c-12.8-24.8-7.2-51.2,16-76c12.8-13.601,16-28.8,12-46.4c-5.601-27.2-19.2-51.2-36-72.8c-22.4-32.8-48-63.2-76.8-91.2
		c-7.2-7.2-13.601-7.2-20,0.8c-5.601,7.2-12.801,13.6-17.601,20.8c-13.6,20.8-28.8,40.8-39.2,64.8
		c-10.399,12.8-11.199,29.6-11.199,44c-0.801,27.2,3.199,54.399,20.8,77.6c4.8,6.4,8.8,13.601,12.8,20.8
		c10.4,21.601,7.2,47.2-7.2,61.601c-2.399,2.399-4.8,5.6-8,4.8c-4.8-2.4-4.8-7.2-4.8-10.4c0-11.199-3.2-22.399-9.6-32.8
		c-1.601-2.399-6.4-9.6-12.801-19.2c4,58.4,0,116.801-5.6,175.2c-1.6,14.4,0,28.8,2.4,43.2c6.399,48.8,40,95.2,103.199,92
		c40-1.6,66.4-19.2,84.801-52c13.6-24,20-50.4,20-77.6c0-54.4,5.6-108.801,15.199-162.4c0.801-3.2,0.801-10.4,1.601-16.8
		C805.6,559.63,800.8,566.03,799.2,568.43z"/>
	<path d="M553.6,397.23c4-12.8,9.601-28.8,12-33.6c15.2-27.2,36-49.6,58.4-72c28-19.2,29.6-26.4,8.8-52c-4-4.8-1.6-6.4,1.601-8.8
		c6.399-4,12.8-4,19.199-1.6c12.801,4,23.2,12.8,29.601,24c9.6,16,24,24,39.2,32c12,10.4,24,20,36,30.4c29.6,27.2,52.8,60,72,96
		c0.8,4.8,2.399,8.8,5.6,12l0,0c4.8-28.8,5.6-57.6,2.4-85.6c-4-42.4-12-84-36-120c-4-5.6-28.801-30.4-32.801-34.4
		c-20.8-16.8-44.8-26.4-68.8-37.6c-16-7.2-60.8-8-82.399-0.8c-22.4,8-40,22.4-48.801,44c-28.8,65.6-36,132.8-19.199,202.4
		C551.2,393.23,552,394.83,553.6,397.23z"/>
</g>
</svg>
