<?xml version="1.0" encoding="utf-8"?>
<!-- Generator: Adobe Illustrator 16.0.4, SVG Export Plug-In . SVG Version: 6.00 Build 0)  -->
<!DOCTYPE svg PUBLIC "-//W3C//DTD SVG 1.1//EN" "http://www.w3.org/Graphics/SVG/1.1/DTD/svg11.dtd">
<svg version="1.1" id="Layer_1" xmlns="http://www.w3.org/2000/svg" xmlns:xlink="http://www.w3.org/1999/xlink" x="0px" y="0px"
	 width="1000px" height="1000px" viewBox="0 0 1000 1000" enable-background="new 0 0 1000 1000" xml:space="preserve">
<path d="M837.168,286.496c-55.944-114.976-286.584-193.68-394.08-176.04c-105.032,17.256-273.752,158.728-291.936,267.92
	c-7.192,43.176-2.832,121.104,117.584,298.591c59.44,87.601,120.2,159.968,124.512,165.08l-0.072,0.064l42.512,49.903l6.641-5.647
	l-42.208-49.552l6.656-5.633l42.184,49.536l6.64-5.647l-42.159-49.513l6.663-5.624l42.129,49.488l6.64-5.656l-42.112-49.464
	l6.664-5.607l42.088,49.424l6.633-5.648l-42.057-49.399l6.656-5.633l42.032,49.377l6.64-5.656l-42.008-49.344l6.664-5.633
	l41.992,49.328l6.64-5.647l-41.968-49.296l6.656-5.633l41.951,49.272l6.633-5.656l-41.921-49.231l6.656-5.625l41.896,49.209
	l6.647-5.648l-41.888-49.184l6.664-5.633l41.848,49.168l6.641-5.655l-41.832-49.128l0.056-0.057
	c-115.272-136.56-215.08-300.575-209.416-344.039c6.28-37.64,115.647-137.152,169.792-146.04
	c62.776-10.344,212.552,53.912,235.647,92.52c1.36,20.728-24.384,79.44-38.384,111.376c-23.92,54.599-46.536,106.183-46.536,153.872
	h0.112v64.832h8.72v-64.832h8.721v64.832h8.72v-64.832h8.712v64.832h8.728v-64.832h8.712v64.832h8.713v-64.832h8.728v64.832h8.712
	v-64.832h8.72v64.832h8.721v-64.832h8.72v64.832h8.712v-64.832h8.728v64.832h8.712v-64.832h8.712v64.832h8.729v-65.561h-0.096
	c0.52-17.191,20.64-63.096,34.023-93.64C835.216,439.967,871.528,357.12,837.168,286.496z"/>
</svg>
