<?xml version="1.0" encoding="utf-8"?>
<!-- Generator: Adobe Illustrator 16.0.4, SVG Export Plug-In . SVG Version: 6.00 Build 0)  -->
<!DOCTYPE svg PUBLIC "-//W3C//DTD SVG 1.1//EN" "http://www.w3.org/Graphics/SVG/1.1/DTD/svg11.dtd">
<svg version="1.1" id="Layer_1" xmlns:sketch="http://www.bohemiancoding.com/sketch/ns"
	 xmlns="http://www.w3.org/2000/svg" xmlns:xlink="http://www.w3.org/1999/xlink" x="0px" y="0px" width="1000px" height="1000px"
	 viewBox="0 0 1000 1000" enable-background="new 0 0 1000 1000" xml:space="preserve">
<g sketch:type="MSPage">
	<path sketch:type="MSShapeGroup" d="M754.202,341.265c-9.231-11.136-23.271-16.496-37.592-14.376
		c-14.304,2.144-26.176,11.392-31.744,24.744c-3.384,8.12,0.456,17.448,8.576,20.832c8.12,3.384,17.44-0.448,20.832-8.568
		c1.784-4.28,5.521-5.272,7.048-5.496c1.528-0.232,5.393-0.376,8.353,3.192l92.88,112.088c4.775,5.76,6.6,12.872,5.008,19.496
		c-0.864,3.56-2.648,6.664-5.16,9.184c-6.424-12.552-20.12-25.608-47.312-35.624c-26.064-9.6-60.792-14.88-97.792-14.88
		c-37.009,0-71.736,5.28-97.801,14.88c-15.248,5.616-26.239,12.184-34.096,19.088c-10.816-13.024-27.12-21.344-45.336-21.344
		c-18.232,0-34.552,8.328-45.368,21.384c-7.855-6.92-18.855-13.504-34.128-19.128c-26.072-9.6-60.8-14.88-97.8-14.88
		s-71.736,5.28-97.8,14.88c-28.096,10.344-41.776,23.944-47.92,36.88c-6.912-8.744-6.912-21.152,0.376-29.936l92.88-112.088
		c2.96-3.568,6.832-3.432,8.352-3.192c1.528,0.224,5.264,1.216,7.048,5.496c3.392,8.12,12.72,11.944,20.832,8.568
		c8.12-3.384,11.96-12.712,8.576-20.832c-5.567-13.352-17.44-22.6-31.744-24.744c-14.32-2.128-28.36,3.232-37.592,14.376
		l-92.88,112.088c-18.456,22.264-16.944,54.472,3.496,74.928c0.664,0.656,1.384,1.264,2.152,1.8l15.064,10.504
		c8.56,74.736,72.168,132.984,149.16,132.984c82.488,0,149.64-66.856,150.152-149.232c0.016-0.319,0.096-0.624,0.096-0.943
		c0-14.92,12.136-27.056,27.048-27.056c14.92,0,27.056,12.136,27.056,27.056c0,82.808,67.368,150.176,150.177,150.176
		c78.279,0,142.735-60.224,149.544-136.769c0.447-0.191,0.888-0.384,1.336-0.575c15.432-6.624,26.496-19.593,30.352-35.576
		c3.976-16.488-0.2-33.72-11.44-47.296C847.002,453.257,754.202,341.265,754.202,341.265"/>
</g>
</svg>
