<?xml version="1.0" encoding="utf-8"?>
<!-- Generator: Adobe Illustrator 16.0.4, SVG Export Plug-In . SVG Version: 6.00 Build 0)  -->
<!DOCTYPE svg PUBLIC "-//W3C//DTD SVG 1.1//EN" "http://www.w3.org/Graphics/SVG/1.1/DTD/svg11.dtd">
<svg version="1.1" id="Layer_1" xmlns="http://www.w3.org/2000/svg" xmlns:xlink="http://www.w3.org/1999/xlink" x="0px" y="0px"
	 width="1000px" height="1000px" viewBox="0 0 1000 1000" enable-background="new 0 0 1000 1000" xml:space="preserve">
<path d="M711.858,453.413c-4.394-135.879-91.692-269.016-207.466-315.67v315.87l-1.142,1.942l-3.243,3.56l-3.243-3.56l-1.142-1.933
	V137.9C378.058,188.79,292.51,319.159,288.158,453.421c27.958-26.566,65.06-41.745,103.628-41.745
	c34.785,0,68.303,12.429,95.06,34.326v384.948c0,18.413-14.987,33.4-33.4,33.4c-18.414,0-33.401-14.987-33.401-33.4
	c0-7.26-5.876-13.146-13.137-13.146s-13.138,5.886-13.138,13.146c0,32.909,26.774,59.675,59.675,59.675
	c32.909,0,59.674-26.766,59.674-59.675V446.027c26.774-21.915,60.3-34.351,95.102-34.351
	C646.799,411.676,683.909,426.863,711.858,453.413z"/>
<path d="M508.386,129.807c1.575,0.042,3.176,0.05,4.751,0.1v-7.393c0-7.26-5.885-13.137-13.137-13.137s-13.137,5.885-13.137,13.137
	v7.402c1.742-0.05,3.5-0.067,5.251-0.117C301.195,133.232,135.633,260.435,83.219,443.31c26.374-20.489,58.591-31.634,92.15-31.634
	c38.752,0,76.046,15.329,104.037,42.136c4.201-137.821,92.083-271.799,212.925-324.022c2.559-0.066,5.102-0.167,7.669-0.167
	c2.717,0,5.41,0.101,8.119,0.175c118.807,48.146,208.273,184.775,212.508,324.006c27.983-26.799,65.269-42.137,104.021-42.137
	c33.543,0,65.76,11.137,92.134,31.625C864.408,260.593,699.096,133.449,508.386,129.807z"/>
</svg>
